<svg xmlns="http://www.w3.org/2000/svg" width="40" height="40" viewBox="11.912 10.012 16.175 19.975" xml:space="preserve"><path style="fill:#00b5e8" d="M28.086 16.174c0 1.495-.606 2.849-1.586 3.829s-2.334 1.586-3.829 1.586h-2.987c-1.494 0-2.847.606-3.826 1.585S14.273 25.506 14.273 27v-5.411c0-1.496.606-2.85 1.586-3.83s2.334-1.586 3.829-1.586z"/><path style="fill:#fff" d="M28.086 16.175a5.4 5.4 0 0 1-1.586 3.829 5 5 0 0 1-.31.286 5.4 5.4 0 0 0 1.475-3.715h-8.397a5.4 5.4 0 0 0-3.518 1.299q.053-.057.11-.114a5.4 5.4 0 0 1 3.829-1.586z"/><path style="fill:#00b5e8" d="M28.086 15.428H17.328q-.352-.001-.694-.044a5.4 5.4 0 0 1-3.135-1.542 5.4 5.4 0 0 1-1.586-3.83h10.759c1.495 0 2.849.606 3.829 1.586a5.4 5.4 0 0 1 .862 1.122c.461.797.724 1.722.724 2.708"/><path style="fill:#00b5e8" d="M28.086 15.428H17.328q-.352-.001-.694-.044a5.4 5.4 0 0 1-3.135-1.542 5.4 5.4 0 0 1-1.586-3.83h10.759c1.495 0 2.849.606 3.829 1.586a5.4 5.4 0 0 1 .862 1.122c.461.797.724 1.722.724 2.708"/><path style="fill:#fff" d="M28.086 15.428h-.382a5.4 5.4 0 0 0-.712-2.338 5.4 5.4 0 0 0-.862-1.122 5.4 5.4 0 0 0-3.829-1.586H11.925a5 5 0 0 1-.013-.37h10.76c1.495 0 2.849.606 3.829 1.586a5.4 5.4 0 0 1 .862 1.122c.461.797.724 1.722.724 2.708"/><path style="fill:#017dc0" d="M19.688 21.589v2.983q0 .09-.003.179a5.4 5.4 0 0 1-.57 2.249 5.4 5.4 0 0 1-1.012 1.401 5.4 5.4 0 0 1-3.829 1.586V27c0-1.494.606-2.847 1.585-3.826s2.332-1.585 3.826-1.585z"/><path style="opacity:.5;fill:#1f1e21" d="M19.688 21.59v.78h-.003c-1.494 0-2.847.606-3.826 1.585s-1.585 2.332-1.585 3.826v-.78c0-1.494.606-2.847 1.585-3.826s2.332-1.585 3.826-1.585z"/><path style="fill:#00b5e8" d="M19.641 15.424h.039v.004h-.039z"/></svg>